<svg xmlns="http://www.w3.org/2000/svg" viewBox="0 0 238.25 108.97"> <defs> <style>.cls-1{fill:#003468;}.cls-2{fill:none;stroke:#003468;stroke-width:0.74px;}.cls-3{fill:#8baea1;}</style> </defs> <title>reis-logo-web</title> <g id="Layer_2"> <g id="Layer_1-2"> <rect class="cls-1" x="37.72" y="56.93" width="14.32" height="14.35"></rect> <path class="cls-1" d="M62.16,0a2.67,2.67,0,0,1,1.27.33,2.34,2.34,0,0,1,1,1,2.61,2.61,0,0,1,.35,1.29,2.69,2.69,0,0,1-.34,1.28,2.46,2.46,0,0,1-1,1,2.58,2.58,0,0,1-2.56,0,2.46,2.46,0,0,1-1-1,2.58,2.58,0,0,1-.34-1.28,2.5,2.5,0,0,1,.35-1.29,2.34,2.34,0,0,1,1-1A2.67,2.67,0,0,1,62.16,0Zm0,.43A2.26,2.26,0,0,0,61.1.7a2.05,2.05,0,0,0-.8.8A2.11,2.11,0,0,0,60,2.58a2.17,2.17,0,0,0,.28,1.07,2,2,0,0,0,.8.79,2.12,2.12,0,0,0,2.14,0,2,2,0,0,0,.8-.79,2.28,2.28,0,0,0,.28-1.07A2.21,2.21,0,0,0,64,1.5a2.05,2.05,0,0,0-.8-.8A2.29,2.29,0,0,0,62.16.43ZM61,4V1.23H62a2.37,2.37,0,0,1,.71.08.71.71,0,0,1,.35.26.79.79,0,0,1,.13.41.73.73,0,0,1-.22.53.82.82,0,0,1-.58.25.7.7,0,0,1,.24.15,3.09,3.09,0,0,1,.41.55l.34.55h-.55l-.24-.44a2.33,2.33,0,0,0-.47-.65.6.6,0,0,0-.36-.09h-.26V4Zm.45-1.57H62a.93.93,0,0,0,.53-.11A.37.37,0,0,0,62.69,2a.34.34,0,0,0-.07-.22.38.38,0,0,0-.18-.15,1.62,1.62,0,0,0-.45,0h-.51Z"></path> <path class="cls-1" d="M235.67,27.18a2.67,2.67,0,0,1,1.27.33,2.46,2.46,0,0,1,1,1,2.61,2.61,0,0,1,.35,1.29,2.56,2.56,0,0,1-.34,1.28,2.46,2.46,0,0,1-1,1,2.53,2.53,0,0,1-1.28.34,2.56,2.56,0,0,1-1.28-.34,2.46,2.46,0,0,1-1-1,2.56,2.56,0,0,1-.34-1.28,2.61,2.61,0,0,1,.35-1.29,2.46,2.46,0,0,1,1-1A2.7,2.7,0,0,1,235.67,27.18Zm0,.43a2.18,2.18,0,0,0-1.06.28,2,2,0,0,0-.8.79,2.14,2.14,0,0,0-.29,1.08,2.17,2.17,0,0,0,.28,1.07,2.05,2.05,0,0,0,.8.8,2.18,2.18,0,0,0,2.14,0,2.05,2.05,0,0,0,.8-.8,2.17,2.17,0,0,0,.28-1.07,2.14,2.14,0,0,0-.29-1.08,2,2,0,0,0-.8-.79A2.18,2.18,0,0,0,235.67,27.61Zm-1.13,3.58V28.41h1a2.32,2.32,0,0,1,.71.08.67.67,0,0,1,.35.27.68.68,0,0,1,.13.4.71.71,0,0,1-.22.53.85.85,0,0,1-.57.26,1,1,0,0,1,.23.14,3.52,3.52,0,0,1,.41.55l.34.55h-.55l-.24-.44a2.5,2.5,0,0,0-.47-.65.6.6,0,0,0-.36-.09H235v1.18Zm.45-1.56h.54a.84.84,0,0,0,.53-.12.37.37,0,0,0,.14-.31.43.43,0,0,0-.06-.22.45.45,0,0,0-.19-.14,1.19,1.19,0,0,0-.45-.05H235Z"></path> <path class="cls-1" d="M85.43,54.14c12.67,0,18-2.5,18-12,0-7.67-6.09-11.51-12.51-11.51-4.67,0-5.5,1-5.5,4.34ZM71.25,79.83c6,0,7-1.17,7-7.51,0-12.34.34-22.85.25-34.53,0-6.33-1-7.5-6.09-7.5V28.62H88.6c13.42,0,22.51,4.09,22.51,13.68,0,9.42-9.92,12-12.34,12.59l13.76,20.35c2.17,3.25,4.25,4.59,7.17,4.59v1.66h-9.26c-.75,0-1.58-.25-3.42-3.08L92.68,56.14H85.43V72.32c0,6.34,1,7.51,7.25,7.51v1.66H71.25Z"></path> <path class="cls-2" d="M85.43,54.14c12.67,0,18-2.5,18-12,0-7.67-6.09-11.51-12.51-11.51-4.67,0-5.5,1-5.5,4.34ZM71.25,79.83c6,0,7-1.17,7-7.51,0-12.34.34-22.85.25-34.53,0-6.33-1-7.5-6.09-7.5V28.62H88.6c13.42,0,22.51,4.09,22.51,13.68,0,9.42-9.92,12-12.34,12.59l13.76,20.35c2.17,3.25,4.25,4.59,7.17,4.59v1.66h-9.26c-.75,0-1.58-.25-3.42-3.08L92.68,56.14H85.43V72.32c0,6.34,1,7.51,7.25,7.51v1.66H71.25Z"></path> <path class="cls-1" d="M119.45,79.83c6.84,0,7.76-1.17,7.84-7.51.17-10.84.33-22.52.33-34.53,0-6.33-1-7.5-7.33-7.5V28.62h40.19l1.75,9.51H160.9c-3.84-4.76-6.17-7.51-14-7.51h-7.17c-4.17,0-4.92.42-4.92,3.34V52.14h8.59c7.17,0,7.83-1.08,9.09-7.26h1.83V63.06h-1.83c-.92-6.5-2.34-8.08-8.35-8.08H134.8V76c0,2.84,1.25,3.5,5.33,3.5h11c7.92,0,9.51-1.5,14.85-10.42h1.58c-.83,2.17-2.17,9.26-2.83,12.42H119.45Z"></path> <path class="cls-2" d="M119.45,79.83c6.84,0,7.76-1.17,7.84-7.51.17-10.84.33-22.52.33-34.53,0-6.33-1-7.5-7.33-7.5V28.62h40.19l1.75,9.51H160.9c-3.84-4.76-6.17-7.51-14-7.51h-7.17c-4.17,0-4.92.42-4.92,3.34V52.14h8.59c7.17,0,7.83-1.08,9.09-7.26h1.83V63.06h-1.83c-.92-6.5-2.34-8.08-8.35-8.08H134.8V76c0,2.84,1.25,3.5,5.33,3.5h11c7.92,0,9.51-1.5,14.85-10.42h1.58c-.83,2.17-2.17,9.26-2.83,12.42H119.45Z"></path> <path class="cls-1" d="M184.83,72.32c0,6.34,1,7.51,6.34,7.51V81.5h-20V79.83c5.51,0,6.51-1.17,6.51-7.51V37.79c0-6.33-1-7.5-6.51-7.5V28.62h21.19v1.67c-6.51,0-7.51,1.17-7.51,7.5Z"></path> <path class="cls-2" d="M184.83,72.32c0,6.34,1,7.51,6.34,7.51V81.5h-20V79.83c5.51,0,6.51-1.17,6.51-7.51V37.79c0-6.33-1-7.5-6.51-7.5V28.62h21.19v1.67c-6.51,0-7.51,1.17-7.51,7.5Z"></path> <path class="cls-1" d="M226.53,41.55H225.2c-2.51-7.59-6.76-11.93-12.43-11.93-4.09,0-9.92,2.92-9.92,9,0,13.93,27.43,11.34,27.43,27.85,0,6.76-6.09,15.68-18.85,15.68-3.66,0-12.09-1-13.84-2.58s-1.92-10.68-2.17-13.43h1.25c1.25,3.42,5.26,14.35,15.43,14.35,5.67,0,12-3.34,12-10.68,0-15-27.44-10.51-27.44-28,0-6.76,5-13.85,17.44-13.85a26.9,26.9,0,0,1,12.42,2.51Z"></path> <path class="cls-2" d="M226.53,41.55H225.2c-2.51-7.59-6.76-11.93-12.43-11.93-4.09,0-9.92,2.92-9.92,9,0,13.93,27.43,11.34,27.43,27.85,0,6.76-6.09,15.68-18.85,15.68-3.66,0-12.09-1-13.84-2.58s-1.92-10.68-2.17-13.43h1.25c1.25,3.42,5.26,14.35,15.43,14.35,5.67,0,12-3.34,12-10.68,0-15-27.44-10.51-27.44-28,0-6.76,5-13.85,17.44-13.85a26.9,26.9,0,0,1,12.42,2.51Z"></path> <rect class="cls-3" x="37.72" y="0.35" width="14.32" height="14.34"></rect> <rect class="cls-3" x="37.72" y="19.21" width="14.32" height="14.34"></rect> <rect class="cls-3" x="37.72" y="38.07" width="14.32" height="14.35"></rect> <rect class="cls-3" x="18.86" y="19.21" width="14.34" height="14.34"></rect> <rect class="cls-3" x="18.86" y="38.07" width="14.34" height="14.35"></rect> <rect class="cls-1" x="18.86" y="56.93" width="14.34" height="14.35"></rect> <rect class="cls-1" x="18.86" y="75.79" width="14.34" height="14.35"></rect> <rect class="cls-3" y="38.04" width="14.34" height="14.34"></rect> <rect class="cls-1" y="56.93" width="14.34" height="14.35"></rect> <rect class="cls-1" y="75.79" width="14.34" height="14.34"></rect> <rect class="cls-1" y="94.63" width="14.34" height="14.34"></rect> </g> </g> </svg>